<svg width="587" height="785" viewBox="0 0 587 785" fill="none" xmlns="http://www.w3.org/2000/svg">
<path d="M-121.624 357.859C-132.394 402.47 -136.779 448.384 -134.646 494.228C-132.545 541.425 -124.293 592.099 -91.0829 625.568C-58.483 658.287 -8.79841 667.146 37.395 666.382C56.1058 666.057 75.136 664.375 92.4947 657.388C127.545 643.274 150.705 610.047 181.207 587.74C240.092 544.681 323.134 544.356 379.441 497.976C393.845 485.911 406.15 471.542 415.855 455.454C455.069 391.374 453.295 305.983 416.463 240.5C379.631 175.016 310.865 130.025 236.95 116.417C163.036 102.809 85.1642 119.429 19.6503 156.248C-56.6814 199.156 -101.251 275.174 -121.624 357.859Z" fill="#AB27F2"/>
</svg>

