<svg width="171" height="148" viewBox="0 0 171 148" fill="none" xmlns="http://www.w3.org/2000/svg">
<path d="M-14.4956 85.7127C-18.1249 97.567 -20.0533 109.877 -20.2231 122.273C-20.4234 135.034 -19.0215 148.832 -10.6105 158.396C-2.35158 167.749 10.9019 170.945 23.3703 171.49C28.4209 171.706 33.5797 171.562 38.374 169.96C48.0548 166.723 54.8397 158.14 63.427 152.621C80.0048 141.967 102.402 143.228 118.339 131.637C122.419 128.618 125.971 124.943 128.849 120.763C140.464 104.121 141.374 81.0666 132.506 62.8105C123.638 44.5545 105.827 31.305 86.1169 26.4346C66.4069 21.5642 45.1389 24.7805 26.8749 33.6441C5.59486 43.9737 -7.65859 63.7478 -14.4956 85.7127Z" fill="#AB27F2"/>
</svg>
