<svg width="135" height="295" viewBox="0 0 135 295" fill="none" xmlns="http://www.w3.org/2000/svg">
<g clip-path="url(#clip0_53_737)">
<path d="M243.339 128.433C242.31 114.408 239.296 100.599 234.387 87.42C229.36 73.8433 222.213 59.8273 209.392 53.1658C196.819 46.6662 181.492 48.7271 168.083 53.2696C162.653 55.1142 157.257 57.3845 152.844 61.0469C143.936 68.4434 140.284 80.3055 133.469 89.6674C120.312 107.739 96.1086 115.6 84.0139 134.4C80.9388 139.268 78.6917 144.612 77.3639 150.214C71.9127 172.581 80.4155 197.334 97.2875 212.999C114.159 228.665 138.434 235.364 161.277 232.423C184.119 229.482 205.29 217.35 220.965 200.479C239.228 180.82 245.126 154.468 243.339 128.433Z" fill="#AB27F2"/>
</g>
<defs>
<clipPath id="clip0_53_737">
<rect width="227.175" height="227.175" fill="white" transform="translate(0.931641 83.144) rotate(-21.2163)"/>
</clipPath>
</defs>
</svg>
