<svg width="554" height="1151" viewBox="0 0 554 1151" fill="none" xmlns="http://www.w3.org/2000/svg">
<g clip-path="url(#clip0_53_302)">
<path d="M292.133 778.891C316.014 823.204 346.063 863.903 381.382 899.772C417.667 936.768 461.521 972.097 513.15 975.1C563.732 977.936 610.787 948.779 647.944 914.321C662.982 900.351 677.288 885.039 686.344 866.62C704.624 829.423 699.197 785.331 707.763 744.777C724.302 666.491 791.866 605.401 803.869 526.291C806.793 505.89 806.315 485.146 802.455 464.902C787.538 383.86 723.545 315.439 645.51 288.951C567.474 262.463 478.374 276.095 408.058 319.123C337.741 362.151 286.334 432.757 259.811 510.804C228.915 601.746 248.204 696.458 292.133 778.891Z" fill="#AB27F2"/>
</g>
<defs>
<clipPath id="clip0_53_302">
<rect width="813.147" height="813.147" fill="white" transform="translate(1150.27 572.171) rotate(134.657)"/>
</clipPath>
</defs>
</svg>
